<svg width="25" height="25" viewBox="0 0 25 25" fill="none" xmlns="http://www.w3.org/2000/svg">
<g clip-path="url(#clip0_5147_1129)">
<path d="M12.3711 2.79297C15.0881 2.79297 15.4271 2.80297 16.4931 2.85297C17.5581 2.90297 18.2831 3.06997 18.9211 3.31797C19.5811 3.57197 20.1371 3.91597 20.6931 4.47097C21.2016 4.97086 21.595 5.57556 21.8461 6.24297C22.0931 6.87997 22.2611 7.60597 22.3111 8.67097C22.3581 9.73697 22.3711 10.076 22.3711 12.793C22.3711 15.51 22.3611 15.849 22.3111 16.915C22.2611 17.98 22.0931 18.705 21.8461 19.343C21.5958 20.0107 21.2022 20.6156 20.6931 21.115C20.1931 21.6233 19.5884 22.0167 18.9211 22.268C18.2841 22.515 17.5581 22.683 16.4931 22.733C15.4271 22.78 15.0881 22.793 12.3711 22.793C9.65409 22.793 9.31509 22.783 8.24909 22.733C7.18409 22.683 6.45909 22.515 5.82109 22.268C5.15342 22.0174 4.54862 21.6239 4.04909 21.115C3.5405 20.6152 3.14703 20.0104 2.89609 19.343C2.64809 18.706 2.48109 17.98 2.43109 16.915C2.38409 15.849 2.37109 15.51 2.37109 12.793C2.37109 10.076 2.38109 9.73697 2.43109 8.67097C2.48109 7.60497 2.64809 6.88097 2.89609 6.24297C3.14633 5.57515 3.5399 4.97029 4.04909 4.47097C4.54876 3.9622 5.15352 3.5687 5.82109 3.31797C6.45909 3.06997 7.18309 2.90297 8.24909 2.85297C9.31509 2.80597 9.65409 2.79297 12.3711 2.79297ZM12.3711 7.79297C11.045 7.79297 9.77324 8.31975 8.83556 9.25743C7.89788 10.1951 7.37109 11.4669 7.37109 12.793C7.37109 14.1191 7.89788 15.3908 8.83556 16.3285C9.77324 17.2662 11.045 17.793 12.3711 17.793C13.6972 17.793 14.9689 17.2662 15.9066 16.3285C16.8443 15.3908 17.3711 14.1191 17.3711 12.793C17.3711 11.4669 16.8443 10.1951 15.9066 9.25743C14.9689 8.31975 13.6972 7.79297 12.3711 7.79297ZM18.8711 7.54297C18.8711 7.21145 18.7394 6.89351 18.505 6.65909C18.2706 6.42466 17.9526 6.29297 17.6211 6.29297C17.2896 6.29297 16.9716 6.42466 16.7372 6.65909C16.5028 6.89351 16.3711 7.21145 16.3711 7.54297C16.3711 7.87449 16.5028 8.19243 16.7372 8.42685C16.9716 8.66127 17.2896 8.79297 17.6211 8.79297C17.9526 8.79297 18.2706 8.66127 18.505 8.42685C18.7394 8.19243 18.8711 7.87449 18.8711 7.54297ZM12.3711 9.79297C13.1667 9.79297 13.9298 10.109 14.4924 10.6716C15.055 11.2343 15.3711 11.9973 15.3711 12.793C15.3711 13.5886 15.055 14.3517 14.4924 14.9143C13.9298 15.4769 13.1667 15.793 12.3711 15.793C11.5754 15.793 10.8124 15.4769 10.2498 14.9143C9.68716 14.3517 9.37109 13.5886 9.37109 12.793C9.37109 11.9973 9.68716 11.2343 10.2498 10.6716C10.8124 10.109 11.5754 9.79297 12.3711 9.79297Z" fill="#5D6683"/>
</g>
<defs>
<clipPath id="clip0_5147_1129">
<rect width="24" height="24" fill="white" transform="translate(0.371094 0.792969)"/>
</clipPath>
</defs>
</svg>
