<svg width="25" height="25" viewBox="0 0 25 25" fill="none" xmlns="http://www.w3.org/2000/svg">
<g clip-path="url(#clip0_5147_1130)">
<path d="M18.7061 19.132H16.0411V14.955C16.0411 13.959 16.0211 12.677 14.6511 12.677C13.2621 12.677 13.0501 13.761 13.0501 14.882V19.132H10.3841V10.543H12.9441V11.713H12.9791C13.3371 11.039 14.2071 10.326 15.5071 10.326C18.2071 10.326 18.7071 12.104 18.7071 14.417V19.132H18.7061ZM7.37409 9.36797C7.17065 9.36823 6.96915 9.32834 6.78116 9.25058C6.59316 9.17281 6.42236 9.05871 6.27855 8.9148C6.13474 8.7709 6.02075 8.60003 5.9431 8.41198C5.86546 8.22393 5.8257 8.02241 5.82609 7.81897C5.82629 7.5128 5.91727 7.21357 6.08753 6.95912C6.2578 6.70466 6.49969 6.5064 6.78262 6.38942C7.06556 6.27244 7.37683 6.24199 7.67707 6.30191C7.97732 6.36183 8.25305 6.50944 8.4694 6.72608C8.68575 6.94271 8.83301 7.21863 8.89254 7.51895C8.95208 7.81927 8.92122 8.1305 8.80388 8.41329C8.68653 8.69607 8.48796 8.93771 8.23328 9.10764C7.97861 9.27757 7.67926 9.36817 7.37309 9.36797H7.37409ZM8.71009 19.132H6.03709V10.543H8.71109V19.132H8.71009ZM20.0411 3.79297H4.70009C3.96409 3.79297 3.37109 4.37297 3.37109 5.08997V20.496C3.37109 21.213 3.96509 21.793 4.69909 21.793H20.0371C20.7711 21.793 21.3711 21.213 21.3711 20.496V5.08997C21.3711 4.37297 20.7711 3.79297 20.0371 3.79297H20.0401H20.0411Z" fill="#5D6683"/>
</g>
<defs>
<clipPath id="clip0_5147_1130">
<rect width="24" height="24" fill="white" transform="translate(0.371094 0.792969)"/>
</clipPath>
</defs>
</svg>
