 <svg width="152" height="38" viewBox="0 0 152 38" fill="none" xmlns="http://www.w3.org/2000/svg">
            <path d="M139.554 37.7761C136.869 37.7761 134.519 37.1688 132.506 35.9542C130.492 34.7395 128.926 33.0934 127.807 31.0158C126.688 28.9381 126.129 26.6367 126.129 24.1116C126.129 21.4906 126.688 19.1732 127.807 17.1595C128.958 15.1138 130.508 13.4996 132.458 12.317C134.439 11.1343 136.645 10.543 139.074 10.543C141.12 10.543 142.91 10.8786 144.444 11.5498C146.01 12.2211 147.337 13.148 148.424 14.3307C149.51 15.5133 150.341 16.8718 150.917 18.4061C151.492 19.9084 151.78 21.5385 151.78 23.2965C151.78 23.744 151.748 24.2075 151.684 24.6869C151.652 25.1664 151.572 25.5819 151.444 25.9335H131.307V21.139H147.896L144.924 23.3924C145.211 21.9221 145.131 20.6116 144.684 19.4609C144.268 18.3102 143.565 17.3992 142.574 16.728C141.615 16.0567 140.449 15.7211 139.074 15.7211C137.764 15.7211 136.597 16.0567 135.574 16.728C134.551 17.3672 133.768 18.3262 133.225 19.6047C132.713 20.8513 132.522 22.3696 132.65 24.1595C132.522 25.7577 132.729 27.1801 133.273 28.4267C133.848 29.6413 134.679 30.5843 135.766 31.2555C136.885 31.9267 138.163 32.2624 139.602 32.2624C141.04 32.2624 142.255 31.9587 143.246 31.3514C144.268 30.7441 145.067 29.929 145.643 28.9062L150.725 31.3993C150.214 32.6459 149.415 33.7487 148.328 34.7076C147.241 35.6665 145.946 36.4176 144.444 36.961C142.974 37.5044 141.344 37.7761 139.554 37.7761Z" fill="#0F1421"/>
            <path d="M115.105 37.1998V11.1172H121.386V37.1998H115.105Z" fill="#0F1421"/>
            <path d="M87.4336 37.2011V0.90625H93.7145V24.6873L91.3172 23.9681L103.591 11.1187H111.406L101.769 21.6188L111.598 37.2011H104.406L95.872 23.6804L99.6118 22.9133L91.7487 31.3517L93.7145 27.5161V37.2011H87.4336Z" fill="#0F1421"/>
            <path d="M72.7296 37.7761C69.9488 37.7761 67.5195 37.1208 65.4419 35.8103C63.3962 34.4679 61.9898 32.6619 61.2227 30.3925L65.9213 28.139C66.5926 29.6094 67.5195 30.7601 68.7022 31.5911C69.9168 32.4222 71.2593 32.8377 72.7296 32.8377C73.8803 32.8377 74.7913 32.582 75.4625 32.0706C76.1338 31.5591 76.4694 30.8879 76.4694 30.0569C76.4694 29.5454 76.3255 29.1299 76.0379 28.8103C75.7822 28.4587 75.4146 28.171 74.9351 27.9472C74.4876 27.6915 73.9922 27.4838 73.4488 27.3239L69.1816 26.1253C66.9761 25.486 65.298 24.5111 64.1473 23.2006C63.0286 21.8901 62.4692 20.3399 62.4692 18.5499C62.4692 16.9517 62.8688 15.5613 63.6679 14.3786C64.4989 13.164 65.6337 12.2211 67.072 11.5498C68.5424 10.8786 70.2205 10.543 72.1063 10.543C74.5675 10.543 76.7411 11.1343 78.6269 12.317C80.5128 13.4996 81.8553 15.1617 82.6544 17.3033L77.8598 19.5568C77.4123 18.3741 76.6612 17.4312 75.6063 16.728C74.5515 16.0248 73.3689 15.6732 72.0584 15.6732C71.0036 15.6732 70.1725 15.9129 69.5652 16.3923C68.9579 16.8718 68.6542 17.4951 68.6542 18.2622C68.6542 18.7417 68.7821 19.1572 69.0378 19.5088C69.2935 19.8604 69.6451 20.1481 70.0926 20.3718C70.5721 20.5956 71.1154 20.8033 71.7228 20.9951L75.894 22.2417C78.0356 22.881 79.6817 23.8399 80.8324 25.1185C82.0151 26.397 82.6064 27.9632 82.6064 29.8171C82.6064 31.3833 82.1909 32.7738 81.3598 33.9884C80.5288 35.1711 79.3781 36.098 77.9077 36.7692C76.4374 37.4405 74.7114 37.7761 72.7296 37.7761Z" fill="#0F1421"/>
            <path d="M45.8193 37.7761C43.1344 37.7761 40.785 37.1688 38.7713 35.9542C36.7576 34.7395 35.1914 33.0934 34.0726 31.0158C32.9539 28.9381 32.3945 26.6367 32.3945 24.1116C32.3945 21.4906 32.9539 19.1732 34.0726 17.1595C35.2233 15.1138 36.7736 13.4996 38.7234 12.317C40.7051 11.1343 42.9106 10.543 45.3399 10.543C47.3855 10.543 49.1755 10.8786 50.7098 11.5498C52.276 12.2211 53.6025 13.148 54.6893 14.3307C55.776 15.5133 56.6071 16.8718 57.1824 18.4061C57.7578 19.9084 58.0455 21.5385 58.0455 23.2965C58.0455 23.744 58.0135 24.2075 57.9496 24.6869C57.9176 25.1664 57.8377 25.5819 57.7098 25.9335H37.5727V21.139H54.1619L51.1892 23.3924C51.4769 21.9221 51.397 20.6116 50.9495 19.4609C50.534 18.3102 49.8308 17.3992 48.8399 16.728C47.881 16.0567 46.7143 15.7211 45.3399 15.7211C44.0293 15.7211 42.8627 16.0567 41.8398 16.728C40.817 17.3672 40.0339 18.3262 39.4905 19.6047C38.9791 20.8513 38.7873 22.3696 38.9151 24.1595C38.7873 25.7577 38.995 27.1801 39.5384 28.4267C40.1138 29.6413 40.9448 30.5843 42.0316 31.2555C43.1503 31.9267 44.4289 32.2624 45.8673 32.2624C47.3056 32.2624 48.5203 31.9587 49.5111 31.3514C50.534 30.7441 51.3331 29.929 51.9084 28.9062L56.9907 31.3993C56.4792 32.6459 55.6801 33.7487 54.5934 34.7076C53.5066 35.6665 52.2121 36.4176 50.7098 36.961C49.2394 37.5044 47.6093 37.7761 45.8193 37.7761Z" fill="#0F1421"/>
            <path d="M13.3647 37.7765C10.8396 37.7765 8.58616 37.1851 6.60441 36.0025C4.62265 34.7878 3.05643 33.1417 1.90573 31.0641C0.755035 28.9864 0.179688 26.685 0.179688 24.1599C0.179688 21.6028 0.755035 19.3014 1.90573 17.2557C3.05643 15.21 4.62265 13.5799 6.60441 12.3653C8.61812 11.1506 10.8556 10.5433 13.3168 10.5433C15.2986 10.5433 17.0566 10.9429 18.5908 11.742C20.157 12.5091 21.3876 13.5959 22.2826 15.0023L21.3237 16.2968V0.90625H27.6046V37.2011H21.6593V32.1668L22.3306 33.4134C21.4356 34.8198 20.189 35.9066 18.5908 36.6737C16.9926 37.4089 15.2506 37.7765 13.3647 37.7765ZM14.036 32.023C15.4744 32.023 16.7369 31.6874 17.8237 31.0161C18.9105 30.3449 19.7575 29.4179 20.3648 28.2353C21.0041 27.0526 21.3237 25.6942 21.3237 24.1599C21.3237 22.6576 21.0041 21.3151 20.3648 20.1325C19.7575 18.9178 18.9105 17.9749 17.8237 17.3037C16.7369 16.6324 15.4744 16.2968 14.036 16.2968C12.6296 16.2968 11.367 16.6484 10.2483 17.3516C9.12954 18.0228 8.25054 18.9498 7.61126 20.1325C7.00395 21.2832 6.7003 22.6256 6.7003 24.1599C6.7003 25.6942 7.00395 27.0526 7.61126 28.2353C8.25054 29.4179 9.12954 30.3449 10.2483 31.0161C11.367 31.6874 12.6296 32.023 14.036 32.023Z" fill="#0F1421"/>
            <circle cx="118.246" cy="4.68789" r="3.77773" fill="#FA5B68"/>
          </svg>