<svg width="25" height="25" viewBox="0 0 25 25" fill="none" xmlns="http://www.w3.org/2000/svg">
<g clip-path="url(#clip0_5147_1127)">
<path d="M22.5314 6.44792C21.768 6.78561 20.9584 7.00739 20.1294 7.10592C21.0032 6.58335 21.6571 5.76093 21.9694 4.79192C21.1494 5.27992 20.2504 5.62192 19.3134 5.80692C18.684 5.1335 17.8498 4.68688 16.9404 4.5365C16.031 4.38613 15.0974 4.54041 14.2847 4.97537C13.472 5.41033 12.8258 6.1016 12.4466 6.94171C12.0673 7.78182 11.9762 8.7237 12.1874 9.62092C10.5245 9.53757 8.89777 9.10544 7.41272 8.35258C5.92768 7.59972 4.61757 6.54297 3.56744 5.25092C3.19573 5.88937 3.00039 6.61515 3.00144 7.35392C3.00144 8.80392 3.73944 10.0849 4.86144 10.8349C4.19745 10.814 3.54807 10.6347 2.96744 10.3119V10.3639C2.96764 11.3296 3.30181 12.2655 3.91329 13.013C4.52476 13.7604 5.37592 14.2734 6.32244 14.4649C5.70605 14.632 5.05974 14.6566 4.43244 14.5369C4.6993 15.3682 5.21944 16.0951 5.92003 16.616C6.62061 17.1369 7.46657 17.4257 8.33944 17.4419C7.47192 18.1232 6.47861 18.6269 5.41632 18.9241C4.35402 19.2213 3.24356 19.3062 2.14844 19.1739C4.06014 20.4034 6.28553 21.056 8.55844 21.0539C16.2514 21.0539 20.4584 14.6809 20.4584 9.15392C20.4584 8.97392 20.4534 8.79192 20.4454 8.61392C21.2643 8.02209 21.971 7.28894 22.5324 6.44892L22.5314 6.44792Z" fill="#5D6683"/>
</g>
<defs>
<clipPath id="clip0_5147_1127">
<rect width="24" height="24" fill="white" transform="translate(0.371094 0.792969)"/>
</clipPath>
</defs>
</svg>
